#!OML:ASF I:\Actors\actors\Patient Classification 2\Patient 1\Session 1\actor1.ASF
:FULLY-SPECIFIED
:DEGREES
92
root -0.578177 18.6783 5.61349 3.66623 -3.57378 -0.827404
lowerback 1.07969 0.866977 -1.5657
upperback -3.93352 1.10097 -0.0500182
thorax -4.69061 0.605055 0.768313
lowerneck -9.46104 -2.275 -2.09564
upperneck 24.9523 -3.58343 3.02217
head 9.50627 -1.54906 1.00843
rclavicle 4.32357e-015 4.96962e-015
rhumerus -47.8436 -1.34701 -88.234
rradius 39.6696
rwrist 20.2917
rhand -6.4571 -30.5077
rfingers 7.12502
rthumb 19.3929 -59.5606
lclavicle 4.32357e-015 4.96962e-015
lhumerus -43.0062 2.34124 89.85
lradius 35.605
lwrist -10.7705
lhand -5.82359 -23.4197
lfingers 7.12502
lthumb 20.0019 5.57082
rfemur 0 0 0
rtibia 0
rfoot 0 0
rtoes 0
lfemur -4.96837 -4.88458 -13.8335
ltibia 19.7342
lfoot -24.6707 18.0353
ltoes -55.4129
93
root -0.578513 18.6778 5.61449 3.66911 -3.58428 -0.834894
lowerback 1.06825 0.867848 -1.55499
upperback -3.93303 1.10273 -0.0497223
thorax -4.68341 0.605486 0.76272
lowerneck -9.48288 -2.26344 -2.05698
upperneck 24.9535 -3.56177 2.97234
head 9.5085 -1.54048 0.986777
rclavicle -5.19325e-015 -5.56597e-015
rhumerus -47.8294 -1.38664 -88.2116
rradius 39.646
rwrist 20.3563
rhand -6.44628 -30.5347
rfingers 7.12502
rthumb 19.4033 -59.5867
lclavicle -5.19325e-015 -5.56597e-015
lhumerus -42.9978 2.32992 89.8511
lradius 35.6032
lwrist -10.7807
lhand -5.80155 -23.4143
lfingers 7.12502
lthumb 20.0231 5.57403
rfemur 0 0 0
rtibia 0
rfoot 0 0
rtoes 0
lfemur -4.96266 -4.8411 -13.814
ltibia 19.7323
lfoot -24.3917 18.082
ltoes -55.5101
94
root -0.578715 18.6776 5.61505 3.67262 -3.59162 -0.840761
lowerback 1.07139 0.859173 -1.55949
upperback -3.93255 1.09157 -0.0335528
thorax -4.68483 0.600446 0.782472
lowerneck -9.46011 -2.24551 -2.10529
upperneck 24.9268 -3.54195 3.03382
head 9.49617 -1.52959 1.01865
rclavicle -3.35449e-016 -6.55989e-015
rhumerus -47.8225 -1.34469 -88.2106
rradius 39.6543
rwrist 20.3648
rhand -6.47515 -30.5914
rfingers 7.12502
rthumb 19.3755 -59.6461
lclavicle -3.35449e-016 -6.55989e-015
lhumerus -42.9986 2.36814 89.8585
lradius 35.6368
lwrist -10.7787
lhand -5.722 -23.4157
lfingers 7.12502
lthumb 20.0996 5.56457
rfemur 0 0 0
rtibia 0
rfoot 0 0
rtoes 0
lfemur -4.9642 -4.85507 -13.8115
ltibia 19.7376
lfoot -24.4089 18.118
ltoes -55.5249
95
root -0.578797 18.678 5.61527 3.6763 -3.59512 -0.852321
lowerback 1.08534 0.857526 -1.54925
upperback -3.93715 1.08981 -0.0245154
thorax -4.6975 0.599479 0.785896
lowerneck -9.45208 -2.24445 -2.15517
upperneck 24.9157 -3.54662 3.09775
head 9.49302 -1.5297 1.04879
rclavicle -2.12451e-015 -1.49089e-014
rhumerus -47.8211 -1.27683 -88.2266
rradius 39.6536
rwrist 20.3311
rhand -6.49862 -30.6192
rfingers 7.12502
rthumb 19.353 -59.6762
lclavicle -2.12451e-015 -1.49089e-014
lhumerus -43.001 2.36134 89.8804
lradius 35.6732
lwrist -10.7274
lhand -5.67605 -23.3782
lfingers 7.12502
lthumb 20.1437 5.59747
rfemur 0 0 0
rtibia 0
rfoot 0 0
rtoes 0
lfemur -4.97675 -4.88671 -13.8051
ltibia 19.7458
lfoot -24.4621 18.2006
ltoes -55.5592
96
root -0.579566 18.6779 5.61613 3.68927 -3.61065 -0.882626
lowerback 1.07262 0.866059 -1.53303
upperback -3.94534 1.10224 -0.0174116
thorax -4.69893 0.60526 0.783619
lowerneck -9.45193 -2.25101 -2.11708
upperneck 24.9166 -3.5483 3.03819
head 9.49151 -1.53335 1.02153
rclavicle 1.46107e-014 1.98785e-016
rhumerus -47.824 -1.27283 -88.2305
rradius 39.6379
rwrist 20.3282
rhand -6.50985 -30.6452
rfingers 7.12502
rthumb 19.3422 -59.7033
lclavicle 1.46107e-014 1.98785e-016
lhumerus -43.008 2.33182 89.8929
lradius 35.6958
lwrist -10.6982
lhand -5.68843 -23.3417
lfingers 7.12502
lthumb 20.1318 5.63524
rfemur 0 0 0
rtibia 0
rfoot 0 0
rtoes 0
lfemur -4.98496 -4.87467 -13.767
ltibia 19.7495
lfoot -24.5081 18.1758
ltoes -55.5418
97
root -0.580346 18.6775 5.61749 3.69783 -3.63988 -0.901374
lowerback 1.05596 0.881046 -1.52812
upperback -3.95567 1.12246 -0.0220594
thorax -4.70057 0.615107 0.775172
lowerneck -9.41021 -2.2559 -2.04754
upperneck 24.8852 -3.54936 2.96341
head 9.46974 -1.53615 0.984116
rclavicle -2.43511e-015 -2.78299e-015
rhumerus -47.8499 -1.31169 -88.2366
rradius 39.6499
rwrist 20.3086
rhand -6.4729 -30.7276
rfingers 7.12502
rthumb 19.3777 -59.7821
lclavicle -2.43511e-015 -2.78299e-015
lhumerus -43.0099 2.33795 89.8672
lradius 35.6889
lwrist -10.7383
lhand -5.6804 -23.4127
lfingers 7.12502
lthumb 20.1396 5.56337
rfemur 0 0 0
rtibia 0
rfoot 0 0
rtoes 0
lfemur -4.97751 -4.85861 -13.7428
ltibia 19.7521
lfoot -24.525 18.1265
ltoes -55.4829
98
root -0.580775 18.6775 5.61852 3.69471 -3.6463 -0.906935
lowerback 1.05526 0.882724 -1.52923
upperback -3.95506 1.12435 -0.0300962
thorax -4.69944 0.615907 0.767416
lowerneck -9.37086 -2.2564 -1.99861
upperneck 24.8254 -3.54914 2.92788
head 9.43951 -1.53625 0.963864
rclavicle 4.19933e-015 2.18663e-015
rhumerus -47.8618 -1.32869 -88.2572
rradius 39.6679
rwrist 20.263
rhand -6.44531 -30.7908
rfingers 7.12502
rthumb 19.4042 -59.8427
lclavicle 4.19933e-015 2.18663e-015
lhumerus -42.9646 2.42317 89.8017
lradius 35.6251
lwrist -10.8451
lhand -5.66669 -23.5596
lfingers 7.12502
lthumb 20.1527 5.41509
rfemur 0 0 0
rtibia 0
rfoot 0 0
rtoes 0
lfemur -4.96712 -4.93598 -13.7434
ltibia 19.7565
lfoot -24.5385 18.191
ltoes -55.4639
99
root -0.581079 18.6775 5.61999 3.6895 -3.64367 -0.915935
lowerback 1.0364 0.880116 -1.53588
upperback -3.93944 1.12139 -0.0225147
thorax -4.67261 0.614599 0.779592
lowerneck -9.37108 -2.2575 -1.97031
upperneck 24.8027 -3.5457 2.88925
head 9.43017 -1.53634 0.946055
rclavicle -5.23052e-015 5.96354e-016
rhumerus -47.8442 -1.31344 -88.2667
rradius 39.659
rwrist 20.2513
rhand -6.50984 -30.7446
rfingers 7.12502
rthumb 19.3422 -59.8027
lclavicle -5.23052e-015 5.96354e-016
lhumerus -42.9008 2.48199 89.7805
lradius 35.5595
lwrist -10.898
lhand -5.7236 -23.6268
lfingers 7.12502
lthumb 20.098 5.3537
rfemur 0 0 0
rtibia 0
rfoot 0 0
rtoes 0
lfemur -4.95249 -4.98117 -13.7389
ltibia 19.7551
lfoot -24.5703 18.262
ltoes -55.5032
100
root -0.58089 18.6769 5.62188 3.68556 -3.66651 -0.912793
lowerback 1.00847 0.894571 -1.54757
upperback -3.92419 1.1412 -0.0158414
thorax -4.64171 0.624759 0.792621
lowerneck -9.41948 -2.26458 -2.01482
upperneck 24.8541 -3.55952 2.93466
head 9.45964 -1.54104 0.967338
rclavicle -2.5929e-014 -6.55989e-015
rhumerus -47.8344 -1.32998 -88.2407
rradius 39.6467
rwrist 20.2734
rhand -6.57169 -30.5983
rfingers 7.12502
rthumb 19.2827 -59.6623
lclavicle -2.5929e-014 -6.55989e-015
lhumerus -42.8591 2.43071 89.8273
lradius 35.5286
lwrist -10.8325
lhand -5.79748 -23.5863
lfingers 7.12502
lthumb 20.027 5.40161
rfemur 0 0 0
rtibia 0
rfoot 0 0
rtoes 0
lfemur -4.9312 -4.92866 -13.7452
ltibia 19.7471
lfoot -24.5923 18.2641
ltoes -55.5345
101
root -0.580816 18.6765 5.62334 3.67837 -3.68346 -0.906538
lowerback 0.998305 0.905462 -1.55638
upperback -3.91409 1.15561 -0.0184844
thorax -4.6259 0.63205 0.794361
lowerneck -9.49185 -2.25961 -2.08155
upperneck 24.9257 -3.56584 3.03356
head 9.50215 -1.53813 1.01153
rclavicle -2.83268e-015 -7.55382e-015
rhumerus -47.8375 -1.3819 -88.2194
rradius 39.6428
rwrist 20.3252
rhand -6.52501 -30.5186
rfingers 7.12502
rthumb 19.3276 -59.5781
lclavicle -2.83268e-015 -7.55382e-015
lhumerus -42.8498 2.38527 89.8509
lradius 35.5338
lwrist -10.7756
lhand -5.78716 -23.5454
lfingers 7.12502
lthumb 20.037 5.44146
rfemur 0 0 0
rtibia 0
rfoot 0 0
rtoes 0
lfemur -4.91179 -4.89612 -13.7514
ltibia 19.7423
lfoot -24.5928 18.2216
ltoes -55.5328
102
root -0.58124 18.6768 5.62465 3.67443 -3.68838 -0.893221
lowerback 0.990896 0.906411 -1.58506
upperback -3.91397 1.15595 -0.0203919
thorax -4.62218 0.633222 0.808547
lowerneck -9.5057 -2.24844 -2.0619
upperneck 24.9434 -3.54756 3.00706
head 9.50961 -1.53032 1.00094
rclavicle 6.1002e-015 3.57812e-015
rhumerus -47.8613 -1.42176 -88.2162
rradius 39.651
rwrist 20.3676
rhand -6.42893 -30.5681
rfingers 7.12502
rthumb 19.42 -59.6183
lclavicle 6.1002e-015 3.57812e-015
lhumerus -42.8836 2.41415 89.8334
lradius 35.5734
lwrist -10.7992
lhand -5.73632 -23.5548
lfingers 7.12502
lthumb 20.0858 5.42691
rfemur 0 0 0
rtibia 0
rfoot 0 0
rtoes 0
lfemur -4.90767 -4.87621 -13.7639
ltibia 19.7428
lfoot -24.5839 18.1826
ltoes -55.5316
103
root -0.581472 18.6771 5.62567 3.68735 -3.68868 -0.882576
lowerback 0.973046 0.903518 -1.60882
upperback -3.92443 1.15151 -0.0199986
thorax -4.62338 0.631981 0.822667
lowerneck -9.48497 -2.24274 -2.01044
upperneck 24.9379 -3.52849 2.92337
head 9.50058 -1.52596 0.965572
rclavicle 2.16178e-015 1.59028e-015
rhumerus -47.8838 -1.46623 -88.2013
rradius 39.6463
rwrist 20.3897
rhand -6.40892 -30.5173
rfingers 7.12502
rthumb 19.4392 -59.5656
lclavicle 2.16178e-015 1.59028e-015
lhumerus -42.9212 2.44875 89.82
lradius 35.6045
lwrist -10.795
lhand -5.71148 -23.5277
lfingers 7.12502
lthumb 20.1097 5.45149
rfemur 0 0 0
rtibia 0
rfoot 0 0
rtoes 0
lfemur -4.92005 -4.88707 -13.7787
ltibia 19.7427
lfoot -24.592 18.1884
ltoes -55.5276
